<svg className="w-10 h-10 lg:w-12 lg:h-12 relative z-10 transform group-hover:scale-125 transition-transform duration-500" viewBox="0 0 24 24">
                    <path d="M3 3h8v8H3V3zm10 0h8v8h-8V3zM3 13h8v8H3v-8zm10 0h8v8h-8v-8z" opacity="0.8" fill="#a855f7"/>
                    <path d="M5 5h4v4H5V5zm10 0h4v4h-4V5zM5 15h4v4H5v-4zm10 0h4v4h-4v-4z" fill="#a855f7"/>
                    <circle cx="7" cy="7" r="1.5" fill="white"/>
                    <circle cx="17" cy="7" r="1.5" fill="white"/>
                    <circle cx="7" cy="17" r="1.5" fill="white"/>
                    <circle cx="17" cy="17" r="1.5" fill="white"/>
                  </svg>